# xmcd CD database file
#
# Track frame offsets:
#	150
#	20411
#	41605
#	61728
#	85350
#	100336
#	118739
#	141500
#	162906
#	184367
#	205998
#	225133
#	245806
#	268199
#	290876
#	313917
#
# Disc length: 4481 seconds
#
# Revision: 0
# Processed by: cddbd v1.5.1PL0 Copyright (c) Steve Scherf et al.
# Submitted via: CDex 1.51
#
DISCID=f4117f10
DTITLE=ANDY MONTAÑEZ - EXITOS
DYEAR=1900
DGENRE=Salsa
TTITLE0=MEDLEY 1
TTITLE1=PAYASO
TTITLE2=JOSEFINA
TTITLE3=4
TTITLE4=5
TTITLE5=6
TTITLE6=7
TTITLE7=8
TTITLE8=9
TTITLE9=10
TTITLE10=11
TTITLE11=12
TTITLE12=13
TTITLE13=14
TTITLE14=15
TTITLE15=16
EXTD=
EXTT0=
EXTT1=
EXTT2=
EXTT3=
EXTT4=
EXTT5=
EXTT6=
EXTT7=
EXTT8=
EXTT9=
EXTT10=
EXTT11=
EXTT12=
EXTT13=
EXTT14=
EXTT15=
PLAYORDER=
